<mxfile host="65bd71144e">
    <diagram id="ldZKe99a0s3TlZ5kp_Uz" name="第 1 页">
        <mxGraphModel dx="1106" dy="840" grid="1" gridSize="10" guides="1" tooltips="1" connect="1" arrows="1" fold="1" page="1" pageScale="1" pageWidth="827" pageHeight="1169" math="0" shadow="0">
            <root>
                <mxCell id="0"/>
                <mxCell id="1" parent="0"/>
                <mxCell id="342" style="edgeStyle=none;html=1;endArrow=none;endFill=0;" parent="1" source="2" target="293" edge="1">
                    <mxGeometry relative="1" as="geometry"/>
                </mxCell>
                <mxCell id="343" style="edgeStyle=none;html=1;endArrow=none;endFill=0;" parent="1" source="2" target="294" edge="1">
                    <mxGeometry relative="1" as="geometry"/>
                </mxCell>
                <mxCell id="2" value="健康管家" style="shape=umlActor;verticalLabelPosition=bottom;verticalAlign=top;html=1;fontStyle=1;fontSize=15;" parent="1" vertex="1">
                    <mxGeometry x="160" y="360" width="30" height="60" as="geometry"/>
                </mxCell>
                <mxCell id="277" value="客户管理" style="ellipse;whiteSpace=wrap;html=1;fontSize=15;fontStyle=1;fillColor=#ffe6cc;strokeColor=#d79b00;" parent="1" vertex="1">
                    <mxGeometry x="330" y="460" width="90" height="50" as="geometry"/>
                </mxCell>
                <mxCell id="293" value="登录" style="ellipse;whiteSpace=wrap;html=1;fontSize=15;fontStyle=1;fillColor=#ffe6cc;strokeColor=#d79b00;" parent="1" vertex="1">
                    <mxGeometry x="330" y="365" width="90" height="50" as="geometry"/>
                </mxCell>
                <mxCell id="294" value="健康管家" style="ellipse;whiteSpace=wrap;html=1;fontSize=15;fontStyle=1;fillColor=#ffe6cc;strokeColor=#d79b00;" parent="1" vertex="1">
                    <mxGeometry x="330" y="270" width="90" height="50" as="geometry"/>
                </mxCell>
                <mxCell id="341" style="edgeStyle=none;html=1;endArrow=none;endFill=0;" parent="1" source="2" target="277" edge="1">
                    <mxGeometry relative="1" as="geometry"/>
                </mxCell>
                <mxCell id="355" value="日常护理" style="ellipse;whiteSpace=wrap;html=1;fontSize=15;fontStyle=1;fillColor=#dae8fc;strokeColor=#6c8ebf;" parent="1" vertex="1">
                    <mxGeometry x="500" y="220" width="90" height="50" as="geometry"/>
                </mxCell>
                <mxCell id="356" value="护理记录" style="ellipse;whiteSpace=wrap;html=1;fontSize=15;fontStyle=1;fillColor=#dae8fc;strokeColor=#6c8ebf;" parent="1" vertex="1">
                    <mxGeometry x="500" y="320" width="90" height="50" as="geometry"/>
                </mxCell>
                <mxCell id="357" value="外出登记" style="ellipse;whiteSpace=wrap;html=1;fontSize=15;fontStyle=1;fillColor=#dae8fc;strokeColor=#6c8ebf;" parent="1" vertex="1">
                    <mxGeometry x="500" y="410" width="90" height="50" as="geometry"/>
                </mxCell>
                <mxCell id="358" value="退住登记" style="ellipse;whiteSpace=wrap;html=1;fontSize=15;fontStyle=1;fillColor=#dae8fc;strokeColor=#6c8ebf;" parent="1" vertex="1">
                    <mxGeometry x="500" y="510" width="90" height="50" as="geometry"/>
                </mxCell>
                <mxCell id="367" value="浏览外出申请列表" style="ellipse;whiteSpace=wrap;html=1;fontSize=15;fontStyle=1;" parent="1" vertex="1">
                    <mxGeometry x="700" y="440" width="190" height="50" as="geometry"/>
                </mxCell>
                <mxCell id="368" value="提交退住申请" style="ellipse;whiteSpace=wrap;html=1;fontSize=15;fontStyle=1;" parent="1" vertex="1">
                    <mxGeometry x="700" y="524.5" width="190" height="50" as="geometry"/>
                </mxCell>
                <mxCell id="377" value="浏览退住申请列表" style="ellipse;whiteSpace=wrap;html=1;fontSize=15;fontStyle=1;" parent="1" vertex="1">
                    <mxGeometry x="700" y="610" width="190" height="50" as="geometry"/>
                </mxCell>
                <mxCell id="378" value="查询自己服务的客户信息列表" style="ellipse;whiteSpace=wrap;html=1;fontSize=15;fontStyle=1;" parent="1" vertex="1">
                    <mxGeometry x="700" y="200" width="200" height="50" as="geometry"/>
                </mxCell>
                <mxCell id="381" value="生成护理记录" style="ellipse;whiteSpace=wrap;html=1;fontSize=15;fontStyle=1;" parent="1" vertex="1">
                    <mxGeometry x="700" y="120" width="190" height="50" as="geometry"/>
                </mxCell>
                <mxCell id="415" value="&amp;lt;&amp;lt;include&amp;gt;&amp;gt;" style="html=1;verticalAlign=bottom;labelBackgroundColor=none;endArrow=open;endFill=0;dashed=1;" parent="1" source="294" target="355" edge="1">
                    <mxGeometry width="160" relative="1" as="geometry">
                        <mxPoint x="376" y="312" as="sourcePoint"/>
                        <mxPoint x="314" y="210" as="targetPoint"/>
                    </mxGeometry>
                </mxCell>
                <mxCell id="416" value="&amp;lt;&amp;lt;include&amp;gt;&amp;gt;" style="html=1;verticalAlign=bottom;labelBackgroundColor=none;endArrow=open;endFill=0;dashed=1;" parent="1" source="294" target="356" edge="1">
                    <mxGeometry width="160" relative="1" as="geometry">
                        <mxPoint x="340" y="372" as="sourcePoint"/>
                        <mxPoint x="278" y="270" as="targetPoint"/>
                    </mxGeometry>
                </mxCell>
                <mxCell id="417" value="&amp;lt;&amp;lt;include&amp;gt;&amp;gt;" style="html=1;verticalAlign=bottom;labelBackgroundColor=none;endArrow=open;endFill=0;dashed=1;" parent="1" source="277" target="357" edge="1">
                    <mxGeometry width="160" relative="1" as="geometry">
                        <mxPoint x="361" y="419" as="sourcePoint"/>
                        <mxPoint x="259" y="371" as="targetPoint"/>
                    </mxGeometry>
                </mxCell>
                <mxCell id="418" value="&amp;lt;&amp;lt;include&amp;gt;&amp;gt;" style="html=1;verticalAlign=bottom;labelBackgroundColor=none;endArrow=open;endFill=0;dashed=1;" parent="1" source="277" target="358" edge="1">
                    <mxGeometry width="160" relative="1" as="geometry">
                        <mxPoint x="371" y="429" as="sourcePoint"/>
                        <mxPoint x="269" y="381" as="targetPoint"/>
                    </mxGeometry>
                </mxCell>
                <mxCell id="435" value="提交外出申请" style="ellipse;whiteSpace=wrap;html=1;fontSize=15;fontStyle=1;" vertex="1" parent="1">
                    <mxGeometry x="700" y="360" width="190" height="50" as="geometry"/>
                </mxCell>
                <mxCell id="436" value="浏览护理记录" style="ellipse;whiteSpace=wrap;html=1;fontSize=15;fontStyle=1;" vertex="1" parent="1">
                    <mxGeometry x="700" y="280" width="190" height="50" as="geometry"/>
                </mxCell>
                <mxCell id="442" value="&amp;lt;&amp;lt;include&amp;gt;&amp;gt;" style="html=1;verticalAlign=bottom;labelBackgroundColor=none;endArrow=open;endFill=0;dashed=1;" edge="1" parent="1" source="355" target="381">
                    <mxGeometry width="160" relative="1" as="geometry">
                        <mxPoint x="580" y="120" as="sourcePoint"/>
                        <mxPoint x="670" y="94" as="targetPoint"/>
                    </mxGeometry>
                </mxCell>
                <mxCell id="443" value="&amp;lt;&amp;lt;include&amp;gt;&amp;gt;" style="html=1;verticalAlign=bottom;labelBackgroundColor=none;endArrow=open;endFill=0;dashed=1;" edge="1" parent="1" source="355" target="378">
                    <mxGeometry width="160" relative="1" as="geometry">
                        <mxPoint x="592" y="240" as="sourcePoint"/>
                        <mxPoint x="753" y="176" as="targetPoint"/>
                    </mxGeometry>
                </mxCell>
                <mxCell id="444" value="&amp;lt;&amp;lt;include&amp;gt;&amp;gt;" style="html=1;verticalAlign=bottom;labelBackgroundColor=none;endArrow=open;endFill=0;dashed=1;" edge="1" parent="1" source="356" target="436">
                    <mxGeometry width="160" relative="1" as="geometry">
                        <mxPoint x="600" y="251" as="sourcePoint"/>
                        <mxPoint x="714" y="242" as="targetPoint"/>
                    </mxGeometry>
                </mxCell>
                <mxCell id="445" value="&amp;lt;&amp;lt;include&amp;gt;&amp;gt;" style="html=1;verticalAlign=bottom;labelBackgroundColor=none;endArrow=open;endFill=0;dashed=1;" edge="1" parent="1" source="356" target="378">
                    <mxGeometry width="160" relative="1" as="geometry">
                        <mxPoint x="598" y="348" as="sourcePoint"/>
                        <mxPoint x="724" y="328" as="targetPoint"/>
                    </mxGeometry>
                </mxCell>
                <mxCell id="446" value="&amp;lt;&amp;lt;include&amp;gt;&amp;gt;" style="html=1;verticalAlign=bottom;labelBackgroundColor=none;endArrow=open;endFill=0;dashed=1;" edge="1" parent="1" source="357" target="378">
                    <mxGeometry x="-0.5897" width="160" relative="1" as="geometry">
                        <mxPoint x="598" y="362" as="sourcePoint"/>
                        <mxPoint x="724" y="382" as="targetPoint"/>
                        <mxPoint as="offset"/>
                    </mxGeometry>
                </mxCell>
                <mxCell id="447" value="&amp;lt;&amp;lt;include&amp;gt;&amp;gt;" style="html=1;verticalAlign=bottom;labelBackgroundColor=none;endArrow=open;endFill=0;dashed=1;" edge="1" parent="1" source="357" target="367">
                    <mxGeometry width="160" relative="1" as="geometry">
                        <mxPoint x="598" y="362" as="sourcePoint"/>
                        <mxPoint x="724" y="382" as="targetPoint"/>
                    </mxGeometry>
                </mxCell>
                <mxCell id="448" value="&amp;lt;&amp;lt;include&amp;gt;&amp;gt;" style="html=1;verticalAlign=bottom;labelBackgroundColor=none;endArrow=open;endFill=0;dashed=1;" edge="1" parent="1" source="357" target="435">
                    <mxGeometry width="160" relative="1" as="geometry">
                        <mxPoint x="599" y="450" as="sourcePoint"/>
                        <mxPoint x="718" y="465" as="targetPoint"/>
                    </mxGeometry>
                </mxCell>
                <mxCell id="449" value="&amp;lt;&amp;lt;include&amp;gt;&amp;gt;" style="html=1;verticalAlign=bottom;labelBackgroundColor=none;endArrow=open;endFill=0;dashed=1;" edge="1" parent="1" source="358" target="368">
                    <mxGeometry width="160" relative="1" as="geometry">
                        <mxPoint x="609" y="460" as="sourcePoint"/>
                        <mxPoint x="728" y="475" as="targetPoint"/>
                    </mxGeometry>
                </mxCell>
                <mxCell id="450" value="&amp;lt;&amp;lt;include&amp;gt;&amp;gt;" style="html=1;verticalAlign=bottom;labelBackgroundColor=none;endArrow=open;endFill=0;dashed=1;" edge="1" parent="1" source="358" target="377">
                    <mxGeometry width="160" relative="1" as="geometry">
                        <mxPoint x="619" y="470" as="sourcePoint"/>
                        <mxPoint x="738" y="485" as="targetPoint"/>
                    </mxGeometry>
                </mxCell>
                <mxCell id="451" value="&amp;lt;&amp;lt;include&amp;gt;&amp;gt;" style="html=1;verticalAlign=bottom;labelBackgroundColor=none;endArrow=open;endFill=0;dashed=1;" edge="1" parent="1" source="358" target="378">
                    <mxGeometry width="160" relative="1" as="geometry">
                        <mxPoint x="629" y="480" as="sourcePoint"/>
                        <mxPoint x="748" y="495" as="targetPoint"/>
                    </mxGeometry>
                </mxCell>
            </root>
        </mxGraphModel>
    </diagram>
</mxfile>